<?xml version="1.0" standalone="no"?>
<!DOCTYPE svg PUBLIC "-//W3C//DTD SVG 20010904//EN"
 "http://www.w3.org/TR/2001/REC-SVG-20010904/DTD/svg10.dtd">
<svg version="1.0" xmlns="http://www.w3.org/2000/svg"
 width="2172.000000pt" height="912.000000pt" viewBox="0 0 2172.000000 912.000000"
 preserveAspectRatio="xMidYMid meet">

<g transform="translate(0.000000,912.000000) scale(0.100000,-0.100000)"
fill="#000000" stroke="none">
<path d="M1159 8040 c-75 -40 -69 163 -69 -2268 l0 -2179 23 -34 c13 -19 38
-39 57 -46 27 -9 970 -12 4067 -12 l4032 -1 525 -514 c389 -381 533 -516 556
-521 41 -9 94 11 125 46 l25 31 0 479 0 479 390 0 c424 0 436 1 478 55 l22 28
0 2197 0 2197 -21 27 c-11 14 -34 33 -49 41 -26 13 -639 15 -5077 15 -4949 -1
-5049 -1 -5084 -20z m7261 -1018 c351 -73 554 -239 649 -531 12 -35 20 -65 19
-67 -2 -1 -178 -41 -393 -89 -214 -47 -397 -89 -406 -91 -12 -3 -18 4 -23 31
-8 43 -59 103 -103 121 -18 8 -64 14 -103 14 -103 0 -150 -30 -150 -94 0 -74
67 -116 225 -141 289 -46 433 -86 564 -156 154 -83 261 -192 326 -334 56 -121
69 -191 70 -365 0 -135 -3 -165 -23 -230 -94 -300 -319 -470 -723 -546 -131
-25 -467 -30 -607 -10 -388 57 -637 223 -738 493 -14 36 -23 67 -22 69 4 3
756 274 763 274 3 0 11 -16 20 -36 24 -58 70 -108 127 -139 46 -26 63 -30 133
-29 119 0 167 32 167 111 0 69 -41 92 -227 128 -261 49 -397 90 -535 161 -197
101 -304 228 -357 424 -27 99 -24 356 5 465 87 322 336 520 722 574 41 6 86
13 100 15 14 3 115 3 225 1 148 -3 225 -9 295 -23z m-5359 -329 c85 -170 175
-359 200 -420 24 -62 47 -113 51 -113 3 0 14 24 23 53 38 116 92 235 228 504
l142 283 448 0 448 0 -29 -52 c-16 -29 -217 -398 -446 -820 l-416 -768 0 -395
0 -395 -420 0 -420 0 0 397 0 397 -431 795 c-237 438 -438 806 -445 819 l-14
22 463 0 463 0 155 -307z m3629 -38 l0 -345 -525 0 -525 0 0 -110 0 -110 470
0 470 0 0 -305 0 -305 -470 0 -470 0 0 -110 0 -110 535 0 535 0 0 -345 0 -345
-940 0 -940 0 0 1215 0 1215 930 0 930 0 0 -345z m3628 -407 c-59 -414 -107
-754 -108 -755 -1 -8 -630 -2 -630 5 0 5 -47 342 -105 749 -58 407 -105 743
-105 747 0 3 238 6 528 6 l528 0 -108 -752z m-275 -963 c88 -23 149 -58 205
-119 150 -165 126 -441 -51 -562 -91 -62 -148 -78 -287 -78 -145 -1 -203 14
-290 73 -184 126 -212 398 -58 567 84 91 189 132 338 133 47 1 112 -6 143 -14z"/>
<path d="M13433 6653 c-33 -6 -79 -57 -87 -94 -3 -17 -6 -235 -6 -485 l0 -453
-399 -3 c-386 -3 -401 -4 -428 -24 -15 -11 -36 -36 -46 -55 -16 -32 -17 -153
-15 -2211 l3 -2177 21 -28 c11 -15 36 -36 55 -45 32 -17 245 -18 4024 -18
3861 0 3991 1 4031 19 81 37 74 -178 74 2261 0 2407 5 2220 -64 2258 -29 16
-228 17 -3027 22 l-2996 5 -516 505 c-285 278 -529 510 -545 517 -28 12 -41
13 -79 6z m1058 -2098 c65 -22 123 -75 156 -143 26 -54 28 -65 28 -187 0 -117
-3 -135 -24 -179 -31 -62 -82 -113 -140 -140 -66 -30 -236 -30 -301 0 -60 28
-108 77 -139 144 -24 50 -26 66 -26 180 0 117 2 129 28 182 57 116 166 173
312 163 33 -2 81 -11 106 -20z m-835 -87 c25 -51 52 -118 61 -148 l16 -55 13
48 c7 27 34 93 60 148 l47 99 89 0 c48 0 88 -2 88 -5 0 -2 -47 -104 -105 -226
l-105 -222 0 -108 0 -109 -85 0 -85 0 0 107 0 106 -115 223 c-63 122 -115 225
-115 228 0 3 43 6 95 6 l96 0 45 -92z m1296 -152 c3 -272 5 -279 74 -292 58
-11 103 3 124 39 18 29 20 52 20 265 l0 232 85 0 85 0 0 -257 c0 -229 -3 -263
-19 -298 -38 -84 -124 -125 -261 -125 -140 0 -223 41 -264 130 -19 41 -21 68
-24 298 l-4 252 91 0 90 0 3 -244z m903 233 c91 -25 135 -88 135 -190 0 -95
-34 -148 -109 -169 -26 -7 -26 -7 11 -23 44 -18 54 -36 84 -146 13 -46 30 -94
39 -107 l15 -24 -93 0 c-113 0 -117 3 -146 114 -11 43 -26 85 -33 93 -8 7 -38
16 -66 20 l-52 6 0 -117 0 -116 -85 0 -85 0 0 335 0 335 173 0 c95 0 190 -5
212 -11z m86 -875 c140 -44 221 -217 190 -403 -15 -95 -44 -153 -98 -201 -58
-51 -125 -73 -222 -72 -211 1 -333 142 -318 371 7 110 28 169 83 230 82 92
222 120 365 75z m-1961 -69 l0 -75 -145 0 -145 0 0 -55 0 -55 130 0 130 0 0
-70 0 -70 -130 0 -130 0 0 -60 0 -60 145 0 145 0 0 -75 0 -75 -230 0 -230 0 0
335 0 335 230 0 230 0 0 -75z m367 -47 c39 -68 77 -135 84 -150 12 -27 13 -26
73 80 34 59 73 126 87 149 l24 43 88 0 87 0 0 -335 0 -335 -91 0 -91 0 4 184
4 185 -31 -53 c-91 -159 -97 -166 -138 -166 -37 0 -39 3 -97 92 -33 51 -60 98
-60 105 0 6 -3 14 -7 16 -5 3 -6 -78 -5 -179 l4 -184 -91 0 -91 0 0 208 c0
114 3 264 7 335 l6 127 81 0 82 0 71 -122z m926 111 c50 -14 113 -71 128 -117
20 -59 16 -170 -8 -217 -44 -84 -103 -115 -223 -115 l-80 0 0 -105 0 -105 -85
0 -85 0 0 335 0 335 158 0 c86 0 174 -5 195 -11z m1087 8 c0 -2 18 -92 40
-201 22 -109 43 -226 46 -262 7 -63 24 -80 24 -23 0 25 67 383 87 467 5 21 10
22 108 22 98 0 103 -1 108 -22 20 -77 72 -329 86 -418 l18 -105 7 55 c9 67 86
483 90 488 2 1 41 2 88 0 l84 -3 -48 -230 c-26 -126 -57 -276 -69 -333 l-22
-103 -126 3 -126 3 -42 190 c-23 105 -42 213 -42 240 -2 63 -16 42 -25 -38 -3
-31 -22 -124 -41 -205 -19 -81 -37 -157 -40 -170 -5 -22 -8 -23 -128 -20
l-122 3 -67 320 c-37 176 -67 326 -67 333 -1 9 23 12 89 12 50 0 90 -1 90 -3z
m1338 -69 l-3 -73 -148 -3 -148 -3 3 -52 3 -52 128 -3 127 -3 0 -69 0 -69
-127 -3 -128 -3 -3 -57 -3 -57 148 -3 148 -3 3 -72 3 -73 -236 0 -235 0 0 335
0 335 235 0 236 0 -3 -72z m499 57 c103 -31 155 -140 123 -257 -12 -41 -70
-98 -100 -98 -11 0 -20 -4 -20 -10 0 -5 7 -10 16 -10 34 0 70 -54 93 -140 13
-47 30 -97 37 -112 l15 -28 -95 0 c-63 0 -97 4 -104 13 -6 6 -22 52 -35 101
-14 49 -31 93 -39 97 -7 5 -34 9 -60 9 l-48 0 0 -110 0 -110 -90 0 -90 0 0
335 0 335 173 0 c126 0 187 -4 224 -15z m723 -60 l0 -75 -145 0 -145 0 0 -55
0 -55 130 0 130 0 0 -70 0 -70 -130 0 -130 0 0 -60 0 -60 145 0 145 0 0 -75 0
-75 -230 0 -230 0 0 335 0 335 230 0 230 0 0 -75z m530 49 c65 -30 107 -69
138 -128 25 -48 27 -59 27 -176 0 -117 -2 -129 -28 -182 -34 -70 -88 -114
-168 -139 -49 -15 -92 -19 -220 -19 l-158 0 -3 331 c-2 182 -1 333 2 336 3 3
86 3 185 1 156 -3 186 -6 225 -24z m-5557 -866 c26 -12 58 -33 71 -49 23 -27
43 -85 33 -95 -5 -5 -143 -44 -157 -44 -5 0 -10 6 -10 14 0 22 -49 56 -82 56
-45 0 -68 -17 -68 -49 0 -37 10 -44 115 -82 158 -55 205 -106 205 -220 0 -133
-89 -202 -265 -202 -128 -1 -205 35 -246 115 -11 22 -19 41 -17 43 4 4 150 75
155 75 1 0 3 -7 3 -16 0 -9 15 -31 34 -50 29 -29 41 -34 83 -34 56 0 73 12 73
51 0 39 -19 54 -108 83 -159 53 -212 110 -212 226 0 108 59 177 171 200 61 12
165 2 222 -22z m677 -63 l0 -75 -145 0 -145 0 0 -55 0 -54 128 -3 127 -3 3
-67 3 -68 -131 0 -130 0 0 -60 0 -60 145 0 145 0 0 -75 0 -75 -230 0 -230 0 0
335 0 335 230 0 230 0 0 -75z m347 18 c20 -31 49 -81 65 -111 l28 -54 10 28
c6 16 32 66 58 111 l47 83 94 0 c107 0 104 7 37 -98 -25 -40 -68 -107 -95
-151 l-50 -79 110 -167 c60 -91 109 -168 109 -171 0 -2 -44 -4 -97 -4 l-98 0
-52 83 c-28 45 -57 94 -64 110 -13 28 -29 36 -29 14 0 -7 -27 -57 -61 -110
l-60 -97 -100 0 -100 0 114 168 115 167 -100 150 c-54 83 -103 158 -109 168
-9 16 -2 17 91 17 l100 0 37 -57z m653 -160 c0 -231 7 -283 43 -308 31 -21
119 -20 147 3 32 26 39 82 40 315 l0 207 86 0 85 0 -3 -262 c-3 -259 -3 -264
-28 -308 -50 -89 -181 -133 -326 -110 -115 19 -179 68 -204 159 -5 20 -10 145
-10 279 l0 242 85 0 85 0 0 -217z m982 -20 c48 -131 103 -282 122 -335 l36
-98 -94 0 -93 0 -18 60 -18 60 -127 0 -127 0 -18 -60 -18 -60 -89 0 c-48 0
-88 3 -88 8 0 8 228 641 236 654 3 4 51 8 107 8 l102 0 87 -237z m428 -23 l0
-260 125 0 125 0 0 -75 0 -75 -210 0 -210 0 0 335 0 335 85 0 85 0 0 -260z
m510 -75 l0 -335 -85 0 -85 0 0 335 0 335 85 0 85 0 0 -335z m610 260 l0 -75
-90 0 -90 0 0 -260 0 -260 -87 0 -88 0 3 260 3 260 -91 0 -90 0 0 75 0 75 265
0 265 0 0 -75z m308 -33 c28 -59 53 -125 57 -145 9 -47 21 -47 28 0 4 21 30
86 59 145 l52 108 88 0 c48 0 88 -2 88 -4 0 -2 -49 -109 -110 -236 l-110 -232
0 -99 0 -99 -85 0 -85 0 0 112 0 111 -115 224 -116 223 99 0 99 0 51 -108z"/>
<path d="M14284 4401 c-44 -27 -66 -88 -66 -181 -1 -130 47 -190 151 -190 93
0 135 62 134 200 -1 127 -48 190 -145 190 -25 0 -56 -8 -74 -19z"/>
<path d="M15640 4341 l0 -81 69 0 c63 0 71 2 90 26 26 33 27 75 2 105 -16 19
-30 24 -90 27 l-71 4 0 -81z"/>
<path d="M15742 3520 c-46 -28 -72 -89 -72 -170 0 -85 14 -133 50 -168 76 -77
204 -32 231 81 14 60 6 164 -16 207 -34 66 -127 90 -193 50z"/>
<path d="M15090 3450 l0 -90 58 0 c64 0 85 13 97 62 10 39 -11 93 -41 107 -14
6 -45 11 -69 11 l-45 0 0 -90z"/>
<path d="M17980 3461 l0 -81 68 0 c82 0 102 15 102 77 0 56 -23 74 -105 80
l-65 6 0 -82z"/>
<path d="M19214 3531 c-2 -2 -4 -90 -4 -194 l0 -190 65 6 c107 10 149 43 166
128 20 102 -13 208 -73 237 -25 12 -145 22 -154 13z"/>
<path d="M16350 2627 c0 -8 -12 -55 -26 -103 -15 -49 -29 -97 -31 -106 -5 -16
3 -18 67 -18 65 0 71 2 65 18 -15 34 -55 175 -55 193 0 10 -4 21 -10 24 -5 3
-10 0 -10 -8z"/>
</g>
</svg>
