<svg xmlns="http://www.w3.org/2000/svg" width="1000" height="616" preserveAspectRatio="xMidYMid meet" version="1.0" viewBox="0 0 750 462"><g fill="#000" stroke="none"><path d="M705 3978 c-47 -25 -45 34 -45 -1365 0 -1310 0 -1323 20 -1343 20 -20 33 -20 2453 -20 l2433 0 304 -298 c168 -163 320 -308 338 -320 l33 -24 34 27 35 26 0 295 0 294 250 0 249 0 21 28 c20 27 20 33 20 1335 0 881 -3 1314 -10 1327 -29 53 177 50 -3092 50 -2169 -1 -3029 -4 -3043 -12z m4398 -627 c43 -11 105 -35 137 -52 99 -53 194 -170 214 -266 9 -38 30 -30 -259 -93 -104 -23 -197 -43 -205 -46 -11 -3 -20 7 -29 31 -15 43 -57 67 -116 67 -72 0 -103 -29 -84 -80 12 -31 59 -49 176 -67 120 -19 240 -56 310 -96 145 -83 223 -229 223 -418 0 -305 -232 -473 -655 -473 -92 0 -167 5 -220 16 -110 23 -232 84 -295 148 -46 46 -100 139 -100 170 0 8 81 43 215 91 117 42 220 79 227 82 8 3 23 -12 36 -36 40 -69 125 -103 197 -79 60 20 68 82 14 111 -12 6 -74 22 -138 35 -377 77 -511 202 -511 479 0 275 143 434 441 490 105 20 320 13 422 -14z m-3256 -203 c56 -112 109 -224 119 -250 9 -27 19 -48 23 -48 3 0 23 44 44 98 21 53 73 165 116 247 l78 150 267 3 c240 2 268 1 262 -13 -3 -9 -123 -232 -266 -495 l-260 -480 0 -240 0 -240 -252 2 -253 3 -5 250 -5 250 -251 460 c-138 253 -256 470 -263 483 l-12 22 279 0 278 0 101 -202z m2173 -8 l0 -210 -315 0 -315 0 0 -65 0 -65 285 0 285 0 -2 -182 -3 -183 -282 -3 -283 -2 0 -65 0 -65 320 0 320 0 0 -210 0 -210 -565 0 -565 0 0 735 0 735 560 0 560 0 0 -210z m2245 188 c-2 -13 -30 -203 -60 -423 -31 -220 -58 -415 -62 -432 l-5 -33 -189 0 -188 0 -6 33 c-3 17 -30 210 -60 427 -31 217 -58 407 -61 423 l-6 27 321 0 321 0 -5 -22z m-182 -1026 c113 -51 169 -195 118 -307 -82 -181 -397 -189 -485 -13 -52 103 -21 238 66 295 82 55 210 65 301 25z" transform="translate(0.000000,462.000000) scale(0.100000,-0.100000)"/></g></svg>